<svg xmlns="http://www.w3.org/2000/svg" viewBox="0 0 800 700">
  <defs>
    <linearGradient id="bg" x1="0" y1="0" x2="1" y2="1">
      <stop offset="0" stop-color="#1d3557"/>
      <stop offset="1" stop-color="#0d1b2a"/>
    </linearGradient>
    <linearGradient id="board" x1="0" y1="0" x2="1" y2="1">
      <stop offset="0" stop-color="#ffffff"/>
      <stop offset="1" stop-color="#e9ecef"/>
    </linearGradient>
    <linearGradient id="head" x1="0" y1="0" x2="1" y2="0">
      <stop offset="0" stop-color="#e63946"/>
      <stop offset="1" stop-color="#c1121f"/>
    </linearGradient>
    <filter id="shadow5" x="-30%" y="-30%" width="160%" height="160%">
      <feDropShadow dx="0" dy="20" stdDeviation="24" flood-color="#000" flood-opacity="0.45"/>
    </filter>
  </defs>

  <rect width="800" height="700" fill="url(#bg)"/>

  <g transform="translate(400,290)" filter="url(#shadow5)">
    <g transform="perspective(700px) rotateX(4deg)">
      <rect x="-260" y="-180" width="520" height="360" rx="12" fill="url(#board)"/>

      <rect x="-260" y="-180" width="520" height="64" rx="12" fill="url(#head)"/>
      <rect x="-260" y="-128" width="520" height="12" fill="url(#head)"/>

      <circle cx="-225" cy="-148" r="16" fill="#ffffff" opacity="0.9"/>
      <path d="M-233,-150 L-217,-146 M-233,-142 L-217,-146" stroke="#e63946" stroke-width="4" stroke-linecap="round"/>
      <text x="12" y="-142" text-anchor="middle" font-family="Arial, sans-serif" font-size="30" font-weight="800" fill="#ffffff" letter-spacing="3">NEW ARRIVALS 2026</text>

      <g>
        <rect x="-230" y="-96" width="150" height="66" rx="6" fill="#f1f3f5"/>
        <rect x="-215" y="-82" width="50" height="38" rx="4" fill="#e63946" opacity="0.12"/>
        <rect x="-212" y="-76" width="24" height="6" rx="3" fill="#1d3557"/>
        <rect x="-212" y="-67" width="34" height="6" rx="3" fill="#8d99ae" opacity="0.7"/>
        <circle cx="-150" cy="-60" r="17" fill="#e63946" opacity="0.15"/>
        <text x="-150" y="-56" text-anchor="middle" font-family="Arial" font-size="10" fill="#c1121f" font-weight="700">₹499</text>
      </g>
      <g>
        <rect x="-60" y="-96" width="150" height="66" rx="6" fill="#f1f3f5"/>
        <rect x="-45" y="-82" width="50" height="38" rx="4" fill="#457b9d" opacity="0.12"/>
        <rect x="-42" y="-76" width="24" height="6" rx="3" fill="#1d3557"/>
        <rect x="-42" y="-67" width="34" height="6" rx="3" fill="#8d99ae" opacity="0.7"/>
        <circle cx="20" cy="-60" r="17" fill="#457b9d" opacity="0.15"/>
        <text x="20" y="-56" text-anchor="middle" font-family="Arial" font-size="10" fill="#1d3557" font-weight="700">₹799</text>
      </g>
      <g>
        <rect x="110" y="-96" width="150" height="66" rx="6" fill="#f1f3f5"/>
        <rect x="125" y="-82" width="50" height="38" rx="4" fill="#2a9d8f" opacity="0.12"/>
        <rect x="128" y="-76" width="24" height="6" rx="3" fill="#1d3557"/>
        <rect x="128" y="-67" width="34" height="6" rx="3" fill="#8d99ae" opacity="0.7"/>
        <circle cx="190" cy="-60" r="17" fill="#2a9d8f" opacity="0.15"/>
        <text x="190" y="-56" text-anchor="middle" font-family="Arial" font-size="10" fill="#264653" font-weight="700">₹999</text>
      </g>

      <rect x="-230" y="-8" width="460" height="58" rx="6" fill="#e63946" opacity="0.06"/>
      <rect x="-215" y="4" width="360" height="10" rx="5" fill="#1d3557" opacity="0.85"/>
      <rect x="-215" y="20" width="410" height="8" rx="4" fill="#8d99ae"/>
      <rect x="-215" y="34" width="390" height="8" rx="4" fill="#adb5bd" opacity="0.7"/>

      <rect x="-230" y="62" width="210" height="92" rx="6" fill="#ffffff" stroke="#adb5bd" stroke-width="1.5"/>
      <rect x="-215" y="76" width="140" height="8" rx="4" fill="#1d3557"/>
      <rect x="-215" y="90" width="170" height="7" rx="3.5" fill="#8d99ae"/>
      <rect x="-215" y="103" width="155" height="7" rx="3.5" fill="#adb5bd"/>
      <circle cx="-40" cy="140" r="5" fill="#2a9d8f"/><rect x="-30" y="137" width="80" height="6" rx="3" fill="#adb5bd"/>

      <rect x="0" y="62" width="230" height="92" rx="6" fill="#ffffff" stroke="#adb5bd" stroke-width="1.5"/>
      <rect x="15" y="76" width="140" height="8" rx="4" fill="#e63946"/>
      <rect x="15" y="90" width="180" height="7" rx="3.5" fill="#8d99ae"/>
      <rect x="15" y="103" width="170" height="7" rx="3.5" fill="#adb5bd"/>
      <circle cx="200" cy="140" r="5" fill="#e63946"/><rect x="190" y="137" width="30" height="6" rx="3" fill="#adb5bd"/>
    </g>
  </g>

  <text x="400" y="540" text-anchor="middle" font-family="Arial, sans-serif" font-size="44" font-weight="800" fill="#ffffff" letter-spacing="6">FORM BOARDS</text>
  <text x="400" y="570" text-anchor="middle" font-family="Arial, sans-serif" font-size="18" fill="#a8dadc" letter-spacing="4">DISPLAY NOTICE &amp; INFO BOARDS</text>
  <line x1="330" y1="592" x2="470" y2="592" stroke="#e63946" stroke-width="3" stroke-linecap="round"/>
  <text x="400" y="625" text-anchor="middle" font-family="Arial, sans-serif" font-size="15" fill="#8d99ae" letter-spacing="2">SAMPLE DESIGN • SRI SIGN ADS</text>
</svg>